<svg width="125" height="45" fill="none" xmlns="http://www.w3.org/2000/svg"><g clip-path="url(#clip0_2779_238)" fill="#252428"><path d="M111.27 16.962c.532-.377 1.15-.567 1.845-.567.52 0 .982.102 1.382.308.4.204.73.477.988.814.257.338.43.713.522 1.123h1.27a3.795 3.795 0 00-.727-1.782 3.995 3.995 0 00-1.47-1.193 4.55 4.55 0 00-1.983-.425c-.95 0-1.787.245-2.51.732-.722.488-1.285 1.158-1.69 2.008-.405.85-.605 1.825-.605 2.925 0 1.1.198 2.045.595 2.895.398.85.958 1.517 1.68 2.008.723.49 1.573.732 2.55.732.755 0 1.428-.148 2.018-.445a3.954 3.954 0 001.445-1.215c.375-.515.607-1.1.697-1.758h-1.27c-.15.69-.487 1.24-1.015 1.65-.527.41-1.152.616-1.875.616-.722 0-1.332-.193-1.87-.576-.537-.385-.952-.917-1.245-1.602-.292-.685-.44-1.465-.44-2.345 0-.88.153-1.662.455-2.335.303-.67.72-1.195 1.255-1.573l-.002.005zm10.625-4.217c.305-.313.733-.47 1.28-.47a2.12 2.12 0 01.87.165l.37-1.102a3.04 3.04 0 00-.517-.17 3.584 3.584 0 00-.84-.083 3.23 3.23 0 00-1.393.313c-.44.207-.795.512-1.07.912s-.41.897-.41 1.49v1.592h-1.68v1.103h1.68v9.815h1.25v-9.815h2.433v-1.103h-2.433v-1.317c0-.572.153-1.015.46-1.327v-.003zM99.39 11.216l-5.002 32.5 1.235.19 5.002-32.5-1.235-.19zM39.3 38.81l-1.05-23.25c-.15-3.45.75-3.75 3.05-3.85v-1.15h-9.55c-.4 1.65-1 3.35-1.75 5l-8.5 19.7h-.1l-9.2-19.7c-.9-1.85-1.5-3.25-2.05-5H.3v1.15c3.15.25 4 .4 3.85 3.85l-1.1 23.25c-.1 2.35-.85 3.7-3.05 3.85v1.15h9.8v-1.15c-3.45-.15-4.35-1.5-4.25-3.85l.95-20h.1l9.2 19.8c1.25 2.7 1.95 4.05 2.5 5.6h2.3c.4-1.55.9-2.8 2.1-5.6l9.1-20.8h.1l.9 21c.15 3.35-.65 3.7-2.9 3.85v1.15h13.2v-1.15c-2.85-.15-3.65-.5-3.8-3.85zm16.35-.3V26.76c0-3.2.1-5.45.2-6.3l-.3-.3-10 4.65.5 1.15c.75-.3 1.5-.55 2.2-.55.8 0 1.3.3 1.3 1.65v11.45c0 3.65-.65 4.05-2.55 4.15v1.15h12.15v-1.15c-2.85-.1-3.5-.5-3.5-4.15zM52.7 16.86c2.05 0 3.65-1.65 3.65-3.65s-1.6-3.6-3.65-3.6-3.65 1.65-3.65 3.6c0 1.95 1.6 3.65 3.65 3.65zm29.65-15C81.2.61 78.7-.09 77.15.01c-.85 2.5-2.05 4.9-4.55 7.2l.8.65c3.65-1.35 6.8-3.45 8.95-6zm-12.2 14.8c0-2.2 1.55-4.7 5.8-4.7 3.75 0 6.35 1.85 7.45 6.85h1.15v-7.65c-1.75-.65-4.7-1.35-8.25-1.35-7.25 0-12 3.6-12 9.35 0 10.5 15.85 9.3 15.85 17.6 0 2.7-1.65 5.65-6.05 5.65-5 0-7.95-4.05-8.15-9H64.8c-1.05 1.5-1.4 3.3-1.4 4.6 0 4.95 5.7 6.55 10.3 6.55 7.1 0 12.3-3.65 12.3-10.15 0-11.35-15.85-10.55-15.85-17.75z"/></g><defs><clipPath id="clip0_2779_238"><path fill="#fff" d="M0 0h124.415v44.557H0z"/></clipPath></defs></svg>