<svg width="125" height="53" fill="none" xmlns="http://www.w3.org/2000/svg"><rect x="1" y="1" width="122.024" height="51" rx="25.5" stroke="#252428" stroke-width="2"/><path d="M33.678 25.24l-1.654.453c-.158-.408-.43-.795-.818-1.16-.38-.371-.975-.556-1.784-.555-.73 0-1.339.174-1.825.518-.487.338-.73.76-.729 1.269 0 .458.166.823.496 1.095.337.271.86.493 1.57.663l1.783.428c1.067.256 1.863.652 2.386 1.188.531.537.797 1.22.798 2.051a3.074 3.074 0 01-.588 1.848c-.393.545-.94.976-1.641 1.292-.702.316-1.518.475-2.449.476-1.224.002-2.238-.265-3.041-.8-.796-.537-1.302-1.313-1.518-2.33l1.74-.432c.165.644.481 1.127.947 1.449.473.321 1.09.482 1.848.48.852 0 1.533-.184 2.04-.55.516-.373.773-.814.772-1.323-.001-.845-.597-1.41-1.786-1.694l-1.998-.47c-1.104-.264-1.913-.667-2.43-1.21-.516-.544-.775-1.227-.776-2.051a2.993 2.993 0 01.566-1.806c.386-.523.912-.932 1.578-1.226.665-.302 1.417-.454 2.255-.455 1.196-.002 2.13.262 2.805.79a4.256 4.256 0 011.453 2.061zm1.99 9.299l-.018-12.01 1.762-.002.003 1.89h.172a3.046 3.046 0 011.211-1.506c.558-.359 1.228-.539 2.008-.54.788-.001 1.444.177 1.967.534.53.358.943.858 1.238 1.502h.128a3.588 3.588 0 011.384-1.484c.615-.373 1.35-.56 2.201-.562 1.075-.002 1.956.334 2.645 1.006.688.665 1.033 1.703 1.035 3.114l.012 8.035-1.847.002-.012-8.035c-.002-.888-.246-1.521-.734-1.9-.487-.379-1.06-.568-1.72-.567-.837.001-1.488.26-1.953.777-.458.509-.686 1.146-.685 1.913l.012 7.82-1.89.003-.013-8.229c-.001-.68-.22-1.228-.658-1.642-.437-.422-1.007-.633-1.709-.632a2.5 2.5 0 00-1.342.39 2.943 2.943 0 00-1.008 1.064c-.25.452-.375.971-.374 1.558l.011 7.498-1.826.003zm21.635.247c-.759.002-1.45-.14-2.074-.426a3.557 3.557 0 01-1.484-1.266c-.366-.55-.55-1.216-.55-1.997-.002-.687.134-1.243.405-1.666.272-.43.633-.767 1.084-1.01a5.713 5.713 0 011.503-.562 18.8 18.8 0 011.664-.292c.73-.094 1.321-.167 1.772-.218.459-.05.791-.137.999-.259.215-.122.322-.33.321-.623v-.065c0-.766-.213-1.36-.636-1.782-.416-.43-1.05-.643-1.903-.642-.873.001-1.56.196-2.061.583-.5.38-.851.79-1.051 1.226l-1.763-.62c.314-.731.732-1.301 1.255-1.71a4.852 4.852 0 011.717-.862 7.17 7.17 0 011.837-.25c.386 0 .83.046 1.332.138.501.085.989.27 1.462.556.48.279.874.705 1.183 1.277.316.565.475 1.324.476 2.277l.012 7.906-1.848.003-.002-1.633h-.086c-.121.258-.329.538-.622.839-.293.294-.683.549-1.17.764-.48.209-1.07.313-1.772.314zm.277-1.654c.73-.002 1.346-.146 1.847-.433.501-.287.88-.656 1.137-1.108.257-.459.386-.935.385-1.43l-.003-1.697c-.078.094-.25.18-.515.26a8.839 8.839 0 01-.902.194 27.85 27.85 0 01-.988.152l-.773.087a7 7 0 00-1.343.313 2.381 2.381 0 00-1.008.614c-.25.273-.376.645-.375 1.118.001.637.238 1.12.711 1.449.48.321 1.09.482 1.827.48zm7.586 1.363l-.018-12.01 1.762-.002.003 1.826h.129c.22-.595.618-1.075 1.19-1.441a3.523 3.523 0 011.944-.562c.136 0 .304.003.504.01.2 0 .355.003.462.01l.003 1.87a6.338 6.338 0 00-1.139-.106 3.26 3.26 0 00-1.557.367 2.804 2.804 0 00-1.083 1.001 2.728 2.728 0 00-.385 1.45l.011 7.585-1.826.002zm13.088-12.029l.002 1.569-6.209.009-.002-1.569 6.209-.009zm-4.409-2.85l1.826-.003.017 11.43c.001.622.13 1.08.39 1.374.257.286.666.428 1.224.428.122 0 .247-.008.376-.022.136-.015.283-.037.44-.065l.39 1.653a3.061 3.061 0 01-.634.152c-.243.043-.49.065-.74.065-.968.002-1.756-.284-2.365-.856-.603-.572-.905-1.316-.906-2.233l-.018-11.924zm6.47 14.857v-.552c1.08-.05 1.463-.242 1.461-1.85l-.016-11.16c-.003-1.608-.387-1.8-1.923-1.845v-.552l11.4-.017.004 3.36h-.552c-.074-1.44-.747-2.398-2.74-2.395l-2.016.003c-.672 0-1.055.217-1.053 1.441l.007 5.04c.264-.192.624-.24 1.128-.241l2.76-.004c.96-.002 1.559-.579 1.605-1.563h.552l.007 4.08h-.552c-.05-1.2-.579-1.535-1.61-1.533l-2.713.004c-.864 0-1.175.217-1.174 1.057l.006 4.32c.002 1.608.387 1.8 2.163 1.845v.552l-6.743.01zm16.02-12.96a1.746 1.746 0 01-1.755-1.749 1.741 1.741 0 011.75-1.73 1.741 1.741 0 011.754 1.725 1.746 1.746 0 01-1.75 1.754zm1.431 10.39c.003 1.752.315 1.944 1.683 1.99l.001.552-5.832.008v-.552c.911-.049 1.223-.241 1.22-1.993l-.008-5.496c0-.648-.241-.792-.625-.791-.336 0-.696.12-1.056.265l-.24-.552 4.796-2.239.145.144c-.048.408-.094 1.488-.092 3.024l.008 5.64z" fill="#252428"/></svg>