<svg width="202" height="25" fill="none" xmlns="http://www.w3.org/2000/svg"><g clip-path="url(#clip0_3314_177)"><path d="M11.149 20.224a6.37 6.37 0 100-12.738 6.37 6.37 0 100 12.738z" fill="#252428"/><path d="M22.292 13.58c-.002-.087-.002-.17-.007-.257-.005-.09-.012-.18-.019-.27-.006-.088-.011-.176-.019-.263-.008-.086-.02-.17-.03-.257-.011-.092-.02-.183-.034-.275-.01-.08-.027-.16-.04-.237-.015-.097-.03-.195-.049-.292-.013-.068-.03-.136-.045-.205a10.214 10.214 0 00-.07-.318c-.014-.06-.033-.121-.049-.183-.03-.114-.057-.227-.09-.338-.015-.046-.031-.092-.045-.14a11.65 11.65 0 00-.121-.374 2.49 2.49 0 00-.037-.096c-.05-.138-.1-.275-.156-.412-.007-.018-.016-.035-.022-.053a11.132 11.132 0 00-1.381-2.428l-1.14 1.14a9.51 9.51 0 011.767 5.533c0 5.276-4.278 9.553-9.556 9.553a9.514 9.514 0 01-5.535-1.767l-1.14 1.14A11.118 11.118 0 0011.15 25h11.148V13.858c0-.092-.004-.186-.006-.279h-.001z" fill="#FFB800"/><path d="M.006 14.122c.002.088.002.177.007.265.005.09.012.183.019.274.006.085.011.173.019.26.008.091.02.18.032.271.011.088.019.175.032.261.012.085.028.17.043.254.016.092.028.184.046.277.014.073.032.146.048.218.022.102.043.205.067.307.014.057.031.115.046.174.03.116.059.232.094.347.012.044.028.087.043.132.04.127.08.256.122.382l.034.09a13.25 13.25 0 00.18.467 11.1 11.1 0 001.382 2.431l1.14-1.14a9.518 9.518 0 01-1.75-6.112c.283-4.792 4.165-8.672 8.959-8.956a9.514 9.514 0 016.114 1.752l1.14-1.14a11.118 11.118 0 00-6.676-2.22H0v11.142c0 .09.005.18.006.27v-.006z" fill="#2864DC"/><path d="M32.48 8.424c.765-.541 1.647-.812 2.646-.812.747 0 1.406.147 1.98.441a4.085 4.085 0 012.164 2.778h1.82c-.14-.97-.487-1.821-1.043-2.553A5.676 5.676 0 0037.94 6.57c-.849-.406-1.797-.608-2.841-.608-1.364 0-2.562.35-3.598 1.049-1.037.699-1.843 1.659-2.423 2.875-.578 1.218-.868 2.615-.868 4.19 0 1.577.285 2.932.854 4.15.568 1.218 1.371 2.177 2.408 2.875 1.037.7 2.254 1.05 3.654 1.05 1.083 0 2.046-.212 2.89-.637a5.675 5.675 0 002.072-1.742 5.485 5.485 0 001-2.519h-1.82c-.215.989-.699 1.777-1.456 2.364-.756.588-1.651.883-2.688.883-1.037 0-1.911-.276-2.68-.827-.77-.55-1.366-1.315-1.786-2.294-.42-.98-.63-2.098-.63-3.358 0-1.26.216-2.383.65-3.345.434-.96 1.034-1.712 1.799-2.253h.003zM53.365 7.01a5.539 5.539 0 00-1.806-.812 7.744 7.744 0 00-1.862-.237 8.31 8.31 0 00-2.352.342 5.93 5.93 0 00-2.1 1.113c-.625.513-1.114 1.194-1.47 2.043l1.737.63c.28-.671.774-1.254 1.484-1.75.709-.493 1.628-.741 2.757-.741 1.185 0 2.094.305 2.73.917.634.611.952 1.453.952 2.525v.365c0 .391-.159.676-.476.853-.317.177-.779.306-1.386.385-.606.08-1.349.175-2.224.287-.888.103-1.697.255-2.43.455-.732.2-1.37.472-1.91.812a3.538 3.538 0 00-1.246 1.295c-.29.522-.433 1.17-.433 1.945 0 1.008.23 1.863.693 2.568a4.462 4.462 0 001.868 1.61c.783.37 1.647.553 2.59.553.877 0 1.637-.14 2.282-.42.645-.281 1.18-.638 1.61-1.07.428-.434.747-.88.953-1.337h.111v2.478h1.82V11.212c0-1.044-.175-1.91-.525-2.595-.35-.685-.804-1.22-1.365-1.602l-.002-.005zm.07 8.803c0 .849-.19 1.632-.573 2.352a4.372 4.372 0 01-1.63 1.715c-.705.425-1.538.637-2.5.637-1.035 0-1.892-.262-2.569-.784s-1.014-1.255-1.014-2.197c0-.634.165-1.153.496-1.554.332-.401.813-.718 1.442-.952.63-.232 1.384-.406 2.26-.518a62.99 62.99 0 001.099-.14c.416-.055.827-.12 1.231-.195a8.225 8.225 0 001.078-.266c.313-.102.539-.22.679-.35v2.252h.001zM64.41 0c-.7 0-1.366.15-1.995.447-.63.3-1.14.734-1.532 1.31-.392.574-.588 1.284-.588 2.133v2.28h-2.408v1.581h2.408v14.064h1.792V7.752h3.485v-1.58h-3.485v-1.89c0-.822.22-1.456.658-1.903.438-.448 1.05-.672 1.833-.672.307 0 .557.025.748.076.192.051.357.105.497.161l.532-1.581a4.143 4.143 0 00-.742-.245c-.317-.08-.718-.12-1.204-.12V0zm13.859 7.85a6.266 6.266 0 00-2.142-1.42 6.637 6.637 0 00-2.45-.467c-1.354 0-2.544.35-3.57 1.049-1.026.699-1.826 1.66-2.4 2.883-.573 1.223-.861 2.623-.861 4.199 0 1.576.29 2.97.868 4.184.578 1.213 1.405 2.162 2.478 2.848 1.074.686 2.338 1.029 3.794 1.029 1.035 0 1.957-.17 2.765-.511.807-.341 1.48-.788 2.016-1.344a5.238 5.238 0 001.17-1.812l-1.722-.573a4.213 4.213 0 01-.868 1.294 4.136 4.136 0 01-1.415.945c-.56.233-1.209.35-1.946.35-1.083 0-2.023-.257-2.82-.77-.799-.512-1.415-1.233-1.848-2.161-.405-.865-.618-1.871-.645-3.016h11.64v-.812c0-1.344-.18-2.503-.545-3.477-.365-.975-.864-1.78-1.498-2.414l-.001-.003zm-8.981 2.652c.415-.873 1-1.572 1.756-2.099.757-.527 1.633-.79 2.632-.79.998 0 1.87.26 2.59.782.718.523 1.27 1.231 1.659 2.128.315.73.5 1.542.559 2.434h-9.808c.048-.88.252-1.699.612-2.455zm13.426-9.13c2.039.064 2.548.319 2.548 2.452v14.807c0 2.134-.51 2.389-1.943 2.452v.733h8.951v-.733c-2.357-.063-2.867-.318-2.867-2.452V12.9c0-1.115.415-1.402 1.561-1.402h3.6c1.37 0 2.07.446 2.134 2.039h.733V8.123h-.733c-.064 1.306-.86 2.07-2.134 2.07H90.9c-.67 0-1.147.064-1.498.318V3.824c0-1.624.51-1.91 1.402-1.91h2.676c2.644 0 3.536 1.273 3.631 3.184h.733V.64h-15.13v.732zm21.884 3.28a2.317 2.317 0 002.325-2.324c0-1.274-1.019-2.293-2.325-2.293-1.306 0-2.325 1.05-2.325 2.293 0 1.242 1.019 2.324 2.325 2.324zm1.879 13.788v-7.483c0-2.038.064-3.47.128-4.012l-.191-.191-6.371 2.961.318.733c.478-.191.956-.35 1.402-.35.51 0 .828.19.828 1.05v7.292c0 2.325-.414 2.58-1.624 2.643v.733h7.74v-.733c-1.816-.063-2.23-.318-2.23-2.643zm19.207 0v-7.674c0-2.515-1.083-3.821-3.727-3.821-2.389 0-4.332 1.465-5.734 3.025h-.095c0-1.274.127-2.643.223-3.025l-.192-.191-6.02 2.834.319.732c.414-.159.732-.223 1.083-.223.509 0 .796.192.796 1.051v7.292c0 2.325-.382 2.58-1.625 2.643v.733h7.741v-.733c-1.816-.063-2.23-.318-2.23-2.643v-7.42c1.434-1.018 2.644-1.337 3.695-1.337 1.529 0 1.88.892 1.88 2.198v6.56c0 2.324-.415 2.579-1.625 2.642v.733h7.741v-.733c-1.816-.063-2.23-.318-2.23-2.643zm17.137 1.37c-.764 0-.987-.542-.987-1.593V10.99c0-2.611-1.465-4.044-5.065-4.044-2.485 0-4.587.669-6.02 1.37v4.362h.732c.478-2.611 1.752-4.076 3.791-4.076 1.688 0 2.485.987 2.485 2.866v1.847c-5.575 1.432-7.837 3.056-7.837 5.7 0 1.878 1.179 3.28 3.409 3.28 1.688 0 3.344-.829 4.428-2.453h.063c.382 1.529 1.37 2.293 3.186 2.293 1.72 0 3.09-.892 4.077-2.738l-.51-.51c-.732.733-1.306.924-1.752.924zm-5.064-1.147c-.733.669-1.561 1.147-2.485 1.147-.988 0-1.657-.637-1.657-1.656 0-1.02.51-2.707 4.142-3.662v4.171zm23.38-.223v-7.674c0-2.515-1.083-3.821-3.726-3.821-2.39 0-4.333 1.465-5.734 3.025h-.096c0-1.274.128-2.643.223-3.025l-.191-.191-6.02 2.834.318.732c.414-.159.733-.223 1.083-.223.51 0 .797.192.797 1.051v7.292c0 2.325-.383 2.58-1.625 2.643v.733h7.741v-.733c-1.816-.063-2.23-.318-2.23-2.643v-7.42c1.433-1.018 2.644-1.337 3.695-1.337 1.529 0 1.879.892 1.879 2.198v6.56c0 2.324-.414 2.579-1.624 2.642v.733h7.74v-.733c-1.815-.063-2.23-.318-2.23-2.643zm12.583.828c-2.485 0-4.492-1.847-4.492-5.668 0-3.216 1.498-5.35 3.759-5.35 1.657 0 3.504 1.115 3.982 4.363h.733V8.028c-1.115-.765-2.995-1.083-4.396-1.083-3.918 0-8.187 2.707-8.187 7.993 0 4.68 3.058 7.355 6.913 7.355 3.089 0 5.064-1.783 6.211-4.203l-.51-.51c-1.242 1.179-2.803 1.688-4.013 1.688zm15.385 0c-2.707 0-4.778-1.847-4.905-5.7l9.492-1.178c0-3.407-2.166-5.445-5.638-5.445-4.109 0-7.74 2.993-7.74 7.96 0 4.968 3.344 7.388 7.262 7.388 3.122 0 5.097-1.655 6.308-4.203l-.51-.51c-1.242 1.147-2.867 1.688-4.269 1.688zm-1.879-11.017c1.656 0 2.262 1.56 2.453 3.47l-5.447.67c.191-2.485 1.21-4.14 2.994-4.14zm14.494-4.755a3.643 3.643 0 00-1.932-1.934 3.54 3.54 0 00-1.41-.284 3.47 3.47 0 00-1.403.284 3.72 3.72 0 00-1.155.78 3.63 3.63 0 00-.78 1.154c-.19.438-.284.905-.284 1.403s.094.965.284 1.403a3.682 3.682 0 001.935 1.934c.438.19.905.284 1.403.284.499 0 .972-.094 1.41-.284a3.665 3.665 0 001.932-1.934c.186-.438.28-.905.28-1.403s-.094-.965-.28-1.403zm-.787 2.887c-.263.446-.618.8-1.064 1.064a2.883 2.883 0 01-1.491.394 2.837 2.837 0 01-1.478-.394 2.995 2.995 0 01-1.067-1.064 2.838 2.838 0 01-.398-1.484c0-.544.132-1.038.398-1.484.266-.446.621-.8 1.067-1.063a2.857 2.857 0 011.478-.395c.54 0 1.045.132 1.491.395.446.262.801.617 1.064 1.063.263.446.393.941.389 1.484a2.825 2.825 0 01-.389 1.484z" fill="#252428"/><path d="M199.232 5.198c.162-.087.298-.213.408-.379.109-.165.165-.361.165-.584a.997.997 0 00-.159-.575 1.037 1.037 0 00-.887-.463h-1.606v3.334h.585v-1.2h.921l.629 1.2h.653l-.714-1.33.003-.001.002-.002zm-.249-.488a.575.575 0 01-.411.159h-.832v-1.22h.839c.145 0 .279.045.401.134.123.09.183.239.183.45 0 .212-.06.367-.18.477z" fill="#252428"/></g><defs><clipPath id="clip0_3314_177"><path fill="#fff" d="M0 0h202v25H0z"/></clipPath></defs></svg>