<svg width="144" height="36" fill="none" xmlns="http://www.w3.org/2000/svg"><g clip-path="url(#clip0_2779_222)" fill="#DEE0E4"><path d="M130.67 7.555c.533-.377 1.15-.567 1.845-.567.52 0 .983.102 1.383.307a2.862 2.862 0 011.51 1.938h1.27a3.796 3.796 0 00-.728-1.783 3.979 3.979 0 00-1.47-1.192c-.592-.283-1.252-.425-1.982-.425-.95 0-1.788.245-2.51.732-.723.488-1.285 1.158-1.69 2.008-.405.85-.605 1.825-.605 2.925 0 1.1.197 2.045.595 2.895.397.85.957 1.517 1.68 2.007.722.49 1.572.733 2.55.733.755 0 1.427-.148 2.017-.445a3.954 3.954 0 001.445-1.215c.375-.516.608-1.1.698-1.758h-1.27c-.15.69-.488 1.24-1.015 1.65-.528.41-1.153.615-1.875.615-.723 0-1.333-.193-1.87-.575-.538-.385-.953-.917-1.245-1.602-.293-.686-.44-1.466-.44-2.346 0-.88.152-1.662.455-2.334.302-.67.72-1.195 1.255-1.573l-.003.005zm10.625-4.22c.305-.312.733-.47 1.28-.47a2.12 2.12 0 01.87.165l.37-1.102a3.04 3.04 0 00-.517-.17 3.584 3.584 0 00-.84-.083 3.23 3.23 0 00-1.393.313c-.44.207-.795.512-1.07.912s-.41.898-.41 1.49v1.593h-1.68v1.102h1.68V16.9h1.25V7.085h2.433V5.983h-2.433V4.665c0-.572.153-1.015.46-1.327v-.003zm-22.504-1.53l-5.003 32.5 1.236.19 5.002-32.5-1.235-.19zM28.15 29.4l-9-24.3c-.7-1.75-1.3-3.35-1.75-5.1h-2.7c-.45 1.75-1.05 3.35-1.75 5.1l-9.3 24.3c-.9 2.35-1.95 3.7-3.65 3.85v1.15h9.6v-1.15c-3.45-.15-4.25-1.5-3.4-3.85L8.25 24c.55-1.4 1.15-1.55 2.55-1.55h6c.7 0 1.45-.05 1.8-.4l2.65 7.35c.95 2.6.65 3.7-2.3 3.85v1.15H32.1v-1.15c-2-.15-2.65-.4-3.95-3.85zM16.7 20.45h-5.8c-.6 0-1.1 0-1.4.2l4.25-11.3h.1l3.75 10c.35.9 0 1.1-.9 1.1zM51.15.4c-9.35 0-16.9 6.95-16.9 17.45s7.6 17.3 16.85 17.3c9.25 0 16.9-6.95 16.9-17.45S60.4.4 51.15.4zM52 33.05c-5.8 0-10.8-5.95-10.8-16.6 0-8.65 3.55-13.95 9.05-13.95 5.8 0 10.8 5.95 10.8 16.6 0 8.65-3.55 13.95-9.05 13.95zm39.85 0c-6.65 0-11-6.8-11-16.2 0-9.4 4.8-14.35 11.5-14.35 4.1 0 7.95 1.7 9.35 7.65h1.15v-7.9c-2.2-1-6.2-1.85-10.05-1.85-10.25 0-18.9 6.8-18.9 17.75 0 10.15 7.45 17 17.7 17 5.75 0 9.7-2.15 12.05-4.85l.35-6.9h-1.15c-1.2 4.95-5.35 9.65-11 9.65z"/></g><defs><clipPath id="clip0_2779_222"><path fill="#fff" d="M0 0h143.815v35.15H0z"/></clipPath></defs></svg>