<svg width="200" height="200" fill="none" xmlns="http://www.w3.org/2000/svg"><rect x="1" y="1" width="198" height="198" rx="49" fill="url(#paint0_linear_3083_764)"/><rect x="1" y="1" width="198" height="198" rx="49" stroke="url(#paint1_linear_3083_764)" stroke-width="2"/><path d="M74.711 94.92l-6.614 1.814c-.633-1.632-1.724-3.177-3.273-4.636-1.52-1.487-3.899-2.228-7.136-2.224-2.922.005-5.355.696-7.301 2.074-1.946 1.349-2.918 3.04-2.915 5.074.003 1.834.664 3.293 1.983 4.38 1.348 1.087 3.44 1.972 6.278 2.655l7.135 1.708c4.27 1.025 7.452 2.61 9.546 4.756 2.123 2.145 3.187 4.879 3.192 8.202.004 2.75-.78 5.215-2.352 7.394-1.573 2.179-3.762 3.901-6.567 5.166-2.806 1.264-6.07 1.9-9.794 1.905-4.899.007-8.954-1.061-12.165-3.205-3.183-2.143-5.207-5.249-6.072-9.315l6.958-1.729c.663 2.577 1.926 4.509 3.79 5.795 1.892 1.286 4.357 1.927 7.393 1.923 3.41-.005 6.13-.74 8.161-2.204 2.06-1.492 3.089-3.255 3.086-5.289-.005-3.38-2.386-5.64-7.143-6.779l-7.995-1.879c-4.413-1.053-7.652-2.667-9.718-4.841-2.066-2.174-3.1-4.908-3.106-8.202-.004-2.722.752-5.129 2.267-7.222 1.544-2.094 3.647-3.73 6.31-4.908 2.661-1.207 5.668-1.813 9.02-1.818 4.784-.007 8.524 1.047 11.22 3.163 2.724 2.087 4.662 4.834 5.812 8.242zm9.09 37.197l-.002-2.208c4.32-.198 5.854-.969 5.845-7.401l-.066-44.64c-.01-6.431-1.547-7.197-7.691-7.38l-.003-2.208 45.6-.067.02 13.44-2.208.003c-.297-5.76-2.991-9.596-10.959-9.584l-8.064.012c-2.688.004-4.222.87-4.215 5.766l.03 20.16c1.055-.77 2.494-.964 4.51-.967l11.04-.016c3.84-.006 6.237-2.313 6.423-6.25l2.208-.003.024 16.32-2.208.004c-.199-4.8-2.313-6.141-6.441-6.135l-10.848.016c-3.456.005-4.703.871-4.698 4.231l.026 17.28c.009 6.432 1.546 7.198 8.651 7.379l.003 2.208-26.976.04zm64.078-51.839a6.985 6.985 0 01-7.018-6.997c-.006-3.744 3.061-6.917 6.997-6.922 3.936-.006 7.013 3.157 7.019 6.901a6.986 6.986 0 01-6.998 7.018zm5.725 41.56c.011 7.008 1.26 7.774 6.732 7.958l.003 2.208-23.328.035-.003-2.208c3.648-.198 4.895-.968 4.884-7.976l-.032-21.984c-.004-2.592-.965-3.166-2.501-3.164-1.344.002-2.783.484-4.222 1.062l-.963-2.206 19.186-8.957.577.576c-.189 1.632-.375 5.952-.366 12.096l.033 22.56z" fill="#DEE0E4"/><defs><linearGradient id="paint0_linear_3083_764" x1="100" y1="0" x2="100" y2="200" gradientUnits="userSpaceOnUse"><stop stop-color="#2864DC"/><stop offset="1" stop-color="#00B27D"/></linearGradient><linearGradient id="paint1_linear_3083_764" x1="100" y1="0" x2="100" y2="200" gradientUnits="userSpaceOnUse"><stop stop-color="#2864DC"/><stop offset="1" stop-color="#00B27D"/></linearGradient></defs></svg>