<svg width="142" height="35" fill="none" xmlns="http://www.w3.org/2000/svg"><g clip-path="url(#clip0_3319_313)" fill="#DEE0E4"><path d="M16.9 0C7.55 0 0 6.95 0 17.45s7.6 17.3 16.85 17.3c9.25 0 16.9-6.95 16.9-17.45S26.15 0 16.9 0zm.85 32.65c-5.8 0-10.8-5.95-10.8-16.6C6.95 7.4 10.5 2.1 16 2.1c5.8 0 10.8 5.95 10.8 16.6 0 8.65-3.55 13.95-9.05 13.95zM38.8 1.9c3.2.1 4 .5 4 3.85V29c0 3.35-.8 3.75-3.05 3.85V34H53.8v-1.15c-3.7-.1-4.5-.5-4.5-3.85v-9c0-1.75.65-2.2 2.45-2.2h5.65c2.15 0 3.25.7 3.35 3.2h1.15v-8.5h-1.15c-.1 2.05-1.35 3.25-3.35 3.25h-5.75c-1.05 0-1.8.1-2.35.5V5.75c0-2.55.8-3 2.2-3h4.2c4.15 0 5.55 2 5.7 5h1.15v-7H38.8V1.9zM85.15 0c-9.35 0-16.9 6.95-16.9 17.45s7.6 17.3 16.85 17.3c9.25 0 16.9-6.95 16.9-17.45S94.4 0 85.15 0zM86 32.65c-5.8 0-10.8-5.95-10.8-16.6 0-8.65 3.55-13.95 9.05-13.95 5.8 0 10.8 5.95 10.8 16.6 0 8.65-3.55 13.95-9.05 13.95zm42.32-25.495c.533-.378 1.15-.567 1.845-.567.52 0 .983.102 1.383.307a2.862 2.862 0 011.51 1.938h1.27a3.796 3.796 0 00-.728-1.783 3.979 3.979 0 00-1.47-1.192c-.592-.283-1.252-.425-1.982-.425-.95 0-1.788.245-2.51.732-.723.487-1.285 1.157-1.69 2.007-.405.85-.605 1.825-.605 2.925 0 1.1.197 2.046.595 2.896.397.85.957 1.517 1.68 2.007.722.49 1.572.733 2.55.733.755 0 1.427-.148 2.017-.445a3.954 3.954 0 001.445-1.216 3.81 3.81 0 00.698-1.757h-1.27c-.15.69-.488 1.24-1.015 1.65-.528.41-1.153.615-1.875.615-.723 0-1.333-.193-1.87-.575-.538-.385-.953-.918-1.245-1.603-.293-.684-.44-1.464-.44-2.345 0-.88.152-1.662.455-2.335.302-.67.72-1.194 1.255-1.572l-.003.005zm10.625-4.22c.305-.312.733-.47 1.28-.47a2.108 2.108 0 01.87.165l.37-1.102a3.055 3.055 0 00-.518-.17 3.572 3.572 0 00-.84-.083c-.487 0-.952.105-1.392.313-.44.207-.795.512-1.07.912s-.41.898-.41 1.49v1.593h-1.68v1.102h1.68V16.5h1.25V6.685h2.432V5.583h-2.432V4.265c0-.572.153-1.015.46-1.327v-.003zm-22.505-1.53l-5.002 32.5 1.235.19 5.003-32.5-1.236-.19z"/></g><defs><clipPath id="clip0_3319_313"><path fill="#fff" d="M0 0h141.465v34.75H0z"/></clipPath></defs></svg>