<svg width="200" height="200" viewBox="0 0 200 200" fill="none" xmlns="http://www.w3.org/2000/svg">
<rect x="1" y="1" width="198" height="198" rx="49" fill="url(#paint0_linear_3083_764)"/>
<rect x="1" y="1" width="198" height="198" rx="49" stroke="url(#paint1_linear_3083_764)" stroke-width="2"/>
<path d="M74.7114 94.9195L68.0968 96.7339C67.4642 95.102 66.3734 93.5568 64.8244 92.0981C63.3039 90.6108 60.9252 89.8695 57.6883 89.8743C54.7664 89.8786 52.3325 90.5697 50.3866 91.9475C48.4407 93.2968 47.4692 94.9883 47.4722 97.0222C47.4749 98.8555 48.136 100.315 49.4553 101.402C50.8032 102.489 52.8957 103.374 55.7326 104.057L62.868 105.765C67.1377 106.79 70.3197 108.375 72.4141 110.521C74.537 112.666 75.601 115.4 75.6059 118.723C75.6099 121.473 74.8258 123.938 73.2535 126.117C71.6812 128.296 69.4923 130.018 66.6869 131.283C63.8814 132.547 60.6168 133.183 56.8928 133.188C51.9944 133.195 47.9394 132.127 44.7279 129.983C41.5451 127.84 39.5209 124.734 38.6556 120.668L45.614 118.939C46.2766 121.516 47.5399 123.448 49.4038 124.734C51.2963 126.02 53.7608 126.661 56.7972 126.657C60.2061 126.652 62.9264 125.917 64.958 124.453C67.0183 122.961 68.047 121.198 68.044 119.164C68.039 115.784 65.6581 113.524 60.9012 112.385L52.9062 110.506C48.4932 109.453 45.2538 107.839 43.1881 105.665C41.1224 103.491 40.0871 100.757 40.0823 97.4628C40.0782 94.7414 40.8338 92.334 42.349 90.2407C43.8927 88.1472 45.9958 86.5113 48.6581 85.3329C51.3204 84.1259 54.3273 83.5199 57.6789 83.5149C62.4627 83.5078 66.2026 84.5622 68.8984 86.678C71.6228 88.7652 73.5605 91.5123 74.7114 94.9195ZM83.8019 132.117L83.7987 129.909C88.1184 129.711 89.6533 128.94 89.6438 122.508L89.5779 77.8685C89.5684 71.4365 88.0313 70.6707 81.887 70.4878L81.8837 68.2798L127.484 68.2125L127.504 81.6525L125.296 81.6558C124.999 75.8962 122.305 72.0602 114.337 72.0719L106.273 72.0838C103.585 72.0878 102.051 72.954 102.058 77.85L102.088 98.01C103.143 97.2405 104.582 97.0463 106.598 97.0434L117.638 97.0271C121.478 97.0214 123.875 94.7139 124.061 90.7776L126.269 90.7743L126.293 107.094L124.085 107.098C123.886 102.298 121.772 100.957 117.644 100.963L106.796 100.979C103.34 100.984 102.093 101.85 102.098 105.21L102.124 122.49C102.133 128.922 103.67 129.688 110.775 129.869L110.778 132.077L83.8019 132.117ZM147.879 80.2784C143.943 80.2842 140.866 77.1208 140.861 73.2808C140.855 69.5368 143.922 66.3643 147.858 66.3585C151.794 66.3526 154.871 69.5161 154.877 73.2601C154.882 77.1001 151.815 80.2726 147.879 80.2784ZM153.604 121.838C153.615 128.846 154.864 129.612 160.336 129.796L160.339 132.004L137.011 132.039L137.008 129.831C140.656 129.633 141.903 128.863 141.892 121.855L141.86 99.8713C141.856 97.2793 140.895 96.7048 139.359 96.707C138.015 96.709 136.576 97.1911 135.137 97.7693L134.174 95.5627L153.36 86.6064L153.937 87.1815C153.748 88.8138 153.562 93.1341 153.571 99.2781L153.604 121.838Z" fill="#DEE0E4"/>
<defs>
<linearGradient id="paint0_linear_3083_764" x1="100" y1="0" x2="100" y2="200" gradientUnits="userSpaceOnUse">
<stop stop-color="#2864DC"/>
<stop offset="1" stop-color="#00B27D"/>
</linearGradient>
<linearGradient id="paint1_linear_3083_764" x1="100" y1="0" x2="100" y2="200" gradientUnits="userSpaceOnUse">
<stop stop-color="#2864DC"/>
<stop offset="1" stop-color="#00B27D"/>
</linearGradient>
</defs>
</svg>
