<svg width="202" height="25" viewBox="0 0 202 25" fill="none" xmlns="http://www.w3.org/2000/svg">
<g clip-path="url(#clip0_3314_177)">
<path d="M11.149 20.2235C14.6675 20.2235 17.5198 17.3722 17.5198 13.8549C17.5198 10.3376 14.6675 7.4863 11.149 7.4863C7.63046 7.4863 4.77814 10.3376 4.77814 13.8549C4.77814 17.3722 7.63046 20.2235 11.149 20.2235Z" fill="#252428"/>
<path d="M22.2916 13.5795C22.29 13.4935 22.29 13.4091 22.2852 13.3232C22.2804 13.2324 22.2725 13.1432 22.2661 13.0525C22.2597 12.9649 22.2549 12.8774 22.247 12.7898C22.239 12.7038 22.2263 12.6194 22.2167 12.5334C22.2056 12.4411 22.1976 12.3504 22.1833 12.258C22.1721 12.1784 22.1562 12.0988 22.1434 12.0208C22.1275 11.9237 22.1132 11.8265 22.0941 11.7294C22.0813 11.6609 22.0638 11.5925 22.0495 11.524C22.0272 11.4173 22.0049 11.3107 21.9794 11.2056C21.9651 11.1451 21.9459 11.0846 21.93 11.0225C21.8998 10.9095 21.8727 10.7964 21.8392 10.685C21.8249 10.6388 21.809 10.5926 21.7946 10.5448C21.7564 10.4191 21.7166 10.2949 21.6736 10.1707C21.6624 10.1389 21.6497 10.107 21.637 10.0752C21.5876 9.93665 21.5366 9.79972 21.4809 9.6628C21.4745 9.64528 21.4649 9.62777 21.4586 9.61026C21.1082 8.75845 20.6463 7.94327 20.0777 7.18222L18.9373 8.3222C20.049 9.88411 20.7052 11.7931 20.7052 13.8549C20.7052 19.1313 16.4272 23.4079 11.149 23.4079C9.08483 23.4079 7.17676 22.7519 5.61432 21.6406L4.47394 22.7806C6.4473 24.2597 8.79814 25 11.1506 25H22.2995V13.8613C22.2995 13.8613 22.2995 13.8597 22.2995 13.8581C22.2995 13.7658 22.2948 13.6718 22.2932 13.5795H22.2916Z" fill="#FFB800"/>
<path d="M0.00637083 14.1224C0.00796354 14.21 0.00796354 14.2991 0.0127417 14.3867C0.0175198 14.4775 0.0254833 14.5698 0.0318542 14.6606C0.038225 14.7465 0.0430031 14.8341 0.0509667 14.9217C0.0589302 15.0124 0.0716719 15.1016 0.0828208 15.1923C0.0939698 15.2799 0.101933 15.3675 0.114675 15.4534C0.127417 15.5378 0.143344 15.6222 0.157678 15.7066C0.173605 15.7989 0.186347 15.8913 0.203867 15.9836C0.218201 16.0569 0.235721 16.1301 0.251648 16.2018C0.273946 16.3037 0.294651 16.4071 0.318542 16.509C0.332876 16.5664 0.350396 16.6237 0.36473 16.6826C0.394992 16.7988 0.42366 16.915 0.4587 17.0297C0.471442 17.0743 0.487369 17.1172 0.501703 17.1618C0.541521 17.2892 0.581339 17.4182 0.624342 17.5439C0.635491 17.5742 0.64664 17.6029 0.657789 17.6331C0.708755 17.7732 0.759722 17.9133 0.815467 18.0518C0.821837 18.0678 0.829801 18.0853 0.837765 18.1012C1.18816 18.953 1.65005 19.7698 2.22024 20.5324L3.36061 19.3924C2.14538 17.6856 1.47326 15.5633 1.60864 13.2802C1.89214 8.48778 5.77357 4.6077 10.5676 4.32429C12.8532 4.18896 14.9746 4.85926 16.682 6.07566L17.8224 4.93568C15.849 3.45657 13.4982 2.71622 11.1458 2.71622H0V13.8549C0 13.8549 0 13.8565 0 13.8581C0 13.9489 0.00477812 14.038 0.00637083 14.1288V14.1224Z" fill="#2864DC"/>
<path d="M32.4801 8.42409C33.2446 7.88275 34.1269 7.61209 35.1256 7.61209C35.8725 7.61209 36.5319 7.75857 37.1069 8.05311C37.6819 8.34766 38.1517 8.73615 38.5212 9.22175C38.8891 9.70736 39.1392 10.2439 39.2698 10.8314H41.0903C40.9501 9.8618 40.6029 9.01 40.047 8.27761C39.4912 7.54522 38.7888 6.97682 37.9399 6.57082C37.091 6.16482 36.1433 5.96262 35.0985 5.96262C33.7351 5.96262 32.5374 6.31289 31.5006 7.01185C30.4637 7.7108 29.6578 8.67087 29.078 9.88727C28.4999 11.1053 28.21 12.5016 28.21 14.0778C28.21 15.6541 28.4951 17.009 29.0637 18.227C29.6323 19.445 30.435 20.4035 31.4719 21.1024C32.5087 21.8014 33.7256 22.1516 35.1256 22.1516C36.2086 22.1516 37.1722 21.9399 38.0163 21.5148C38.8605 21.0897 39.5517 20.5101 40.0884 19.773C40.6252 19.0358 40.9581 18.1967 41.0887 17.2542H39.2682C39.0532 18.2429 38.569 19.031 37.8125 19.6185C37.0559 20.206 36.1608 20.5006 35.124 20.5006C34.0871 20.5006 33.2127 20.2251 32.4434 19.6742C31.6742 19.1234 31.0785 18.3591 30.658 17.38C30.2375 16.4008 30.0273 15.2815 30.0273 14.0221C30.0273 12.7627 30.2439 11.6386 30.6787 10.677C31.1119 9.71691 31.7124 8.96542 32.4769 8.42409H32.4801Z" fill="#252428"/>
<path d="M53.3653 7.01026C52.8047 6.62814 52.2042 6.35748 51.5592 6.19826C50.9157 6.03904 50.2946 5.96103 49.6973 5.96103C48.9041 5.96103 48.1205 6.07566 47.3449 6.30334C46.5708 6.53261 45.87 6.90358 45.2457 7.41626C44.6197 7.92893 44.1308 8.61037 43.7756 9.45899L45.5117 10.0895C45.792 9.4176 46.2857 8.83487 46.9961 8.33971C47.7048 7.84614 48.6238 7.59776 49.753 7.59776C50.938 7.59776 51.8475 7.90346 52.4829 8.51484C53.1168 9.12623 53.4354 9.96848 53.4354 11.04V11.4046C53.4354 11.7963 53.2761 12.0813 52.9592 12.258C52.6422 12.4347 52.1803 12.5637 51.5735 12.6433C50.9667 12.7229 50.2245 12.8184 49.3485 12.9299C48.4614 13.0334 47.6523 13.1846 46.9196 13.3852C46.187 13.5859 45.5499 13.8565 45.0084 14.1972C44.4668 14.538 44.0511 14.9694 43.7629 15.4917C43.473 16.0139 43.3297 16.6619 43.3297 17.4373C43.3297 18.4451 43.5606 19.3001 44.0225 20.0054C44.4844 20.7092 45.1071 21.2457 45.8907 21.6151C46.6743 21.9845 47.5376 22.1676 48.4805 22.1676C49.3581 22.1676 50.1178 22.0275 50.7628 21.7472C51.4079 21.467 51.943 21.1104 52.373 20.6773C52.8015 20.2442 53.12 19.7984 53.3255 19.3415H53.437V21.8189H55.2574V11.212C55.2574 10.1675 55.0822 9.30137 54.7319 8.61674C54.3815 7.93212 53.9275 7.39715 53.3669 7.01504L53.3653 7.01026ZM53.4354 15.8133C53.4354 16.6619 53.2443 17.4452 52.862 18.1649C52.4798 18.8829 51.9351 19.4545 51.2311 19.8796C50.5271 20.3047 49.6941 20.5165 48.7321 20.5165C47.6969 20.5165 46.84 20.2554 46.1631 19.7332C45.4862 19.2109 45.1485 18.4785 45.1485 17.536C45.1485 16.9023 45.3142 16.3833 45.6455 15.982C45.9767 15.5808 46.4577 15.264 47.0869 15.0299C47.7176 14.7975 48.4709 14.6239 49.3469 14.5125C49.6639 14.4759 50.0302 14.4281 50.4459 14.3724C50.8616 14.3167 51.2725 14.2514 51.677 14.1765C52.0832 14.1017 52.4415 14.0141 52.7553 13.9107C53.0675 13.8088 53.2936 13.6909 53.4338 13.5604V15.8133H53.4354Z" fill="#252428"/>
<path d="M64.4091 5.23962e-06C63.7099 5.23962e-06 63.0442 0.149668 62.415 0.4474C61.7843 0.746725 61.2747 1.18138 60.8828 1.75615C60.491 2.33092 60.2951 3.04102 60.2951 3.88964V6.17119H57.887V7.7522H60.2951V21.8157H62.0869V7.7522H65.5718V6.17119H62.0869V4.28131C62.0869 3.45976 62.3067 2.82608 62.7447 2.37868C63.1827 1.93129 63.7943 1.70679 64.5779 1.70679C64.8853 1.70679 65.1354 1.73227 65.3265 1.78322C65.5176 1.83417 65.6833 1.8883 65.8234 1.94403L66.3554 0.363016C66.1786 0.278632 65.9301 0.197432 65.6132 0.117825C65.2962 0.0382169 64.8949 -0.00158691 64.4091 -0.00158691V5.23962e-06Z" fill="#252428"/>
<path d="M78.2689 7.85091C77.6334 7.21723 76.9198 6.74277 76.1267 6.43071C75.3335 6.11865 74.5164 5.96262 73.6771 5.96262C72.3233 5.96262 71.1335 6.31289 70.1078 7.01185C69.0805 7.7108 68.281 8.67246 67.7076 9.89524C67.1342 11.118 66.8459 12.5175 66.8459 14.0937C66.8459 15.67 67.1358 17.0647 67.714 18.2779C68.2921 19.4911 69.1187 20.4401 70.1922 21.1263C71.2657 21.8125 72.5303 22.1548 73.9861 22.1548C75.0213 22.1548 75.9435 21.9845 76.751 21.6437C77.5585 21.303 78.2306 20.8556 78.7674 20.3C79.3041 19.7443 79.6927 19.1409 79.9364 18.4881L78.2147 17.9149C78.0188 18.3814 77.7289 18.8129 77.3467 19.2093C76.9644 19.6058 76.493 19.921 75.9323 20.1535C75.3717 20.3875 74.7235 20.5038 73.9861 20.5038C72.903 20.5038 71.9633 20.2474 71.1654 19.7347C70.3674 19.2221 69.751 18.5008 69.3178 17.5726C68.9133 16.7081 68.6999 15.7018 68.6728 14.5571H80.3139V13.7451C80.3139 12.4013 80.1323 11.2422 79.7676 10.2678C79.4029 9.2934 78.9043 8.48777 78.2704 7.85409L78.2689 7.85091ZM69.2876 10.5018C69.7033 9.62935 70.2878 8.93039 71.0443 8.40339C71.8009 7.87638 72.6768 7.61209 73.6755 7.61209C74.6741 7.61209 75.5469 7.8732 76.2652 8.39543C76.9835 8.91765 77.5362 9.62616 77.9248 10.5225C78.2402 11.2533 78.4249 12.0653 78.4839 12.9569H68.676C68.7237 12.0765 68.9276 11.2581 69.2876 10.5018Z" fill="#252428"/>
<path d="M82.7141 1.37244C84.7528 1.43612 85.2624 1.69087 85.2624 3.82435V18.6314C85.2624 20.7649 84.7528 21.0196 83.3193 21.0833V21.8157H92.2704V21.0833C89.9132 21.0196 89.4035 20.7649 89.4035 18.6314V12.8996C89.4035 11.7851 89.8176 11.4985 90.9643 11.4985H94.5639C95.9336 11.4985 96.6344 11.9443 96.6981 13.5365H97.4307V8.12317H96.6981C96.6344 9.42873 95.838 10.193 94.5639 10.193H90.9006C90.2317 10.193 89.7539 10.2567 89.4035 10.5114V3.82435C89.4035 2.20036 89.9132 1.91377 90.8051 1.91377H93.4808C96.1247 1.91377 97.0166 3.18749 97.1122 5.09808H97.8448V0.640045H82.7141V1.37244Z" fill="#252428"/>
<path d="M104.598 4.65228C105.904 4.65228 106.923 3.60146 106.923 2.32774C106.923 1.05401 105.904 0.0350342 104.598 0.0350342C103.292 0.0350342 102.273 1.08586 102.273 2.32774C102.273 3.56962 103.292 4.65228 104.598 4.65228Z" fill="#252428"/>
<path d="M106.477 18.4403V10.9572C106.477 8.91924 106.541 7.4863 106.605 6.94496L106.414 6.75391L100.043 9.71531L100.361 10.4477C100.839 10.2566 101.317 10.0974 101.763 10.0974C102.273 10.0974 102.591 10.2885 102.591 11.1483V18.4403C102.591 20.7649 102.177 21.0196 100.967 21.0833V21.8157H108.707V21.0833C106.891 21.0196 106.477 20.7649 106.477 18.4403Z" fill="#252428"/>
<path d="M125.684 18.4403V10.7661C125.684 8.25053 124.601 6.94496 121.957 6.94496C119.568 6.94496 117.625 8.40975 116.223 9.97006H116.128C116.128 8.69633 116.255 7.32708 116.351 6.94496L116.159 6.75391L110.139 9.58794L110.458 10.3203C110.872 10.1611 111.19 10.0974 111.541 10.0974C112.05 10.0974 112.337 10.2885 112.337 11.1483V18.4403C112.337 20.7649 111.955 21.0196 110.712 21.0833V21.8157H118.453V21.0833C116.637 21.0196 116.223 20.7649 116.223 18.4403V11.0209C117.657 10.0019 118.867 9.68347 119.918 9.68347C121.447 9.68347 121.798 10.5751 121.798 11.8806V18.4403C121.798 20.7649 121.383 21.0196 120.173 21.0833V21.8157H127.914V21.0833C126.098 21.0196 125.684 20.7649 125.684 18.4403Z" fill="#252428"/>
<path d="M142.821 19.8096C142.057 19.8096 141.834 19.2682 141.834 18.2174V10.989C141.834 8.37791 140.369 6.94498 136.769 6.94498C134.284 6.94498 132.182 7.61368 130.749 8.31423V12.6767H131.481C131.959 10.0656 133.233 8.60082 135.272 8.60082C136.96 8.60082 137.757 9.58795 137.757 11.4667V13.3136C132.182 14.7465 129.92 16.3705 129.92 19.0135C129.92 20.8922 131.099 22.2933 133.329 22.2933C135.017 22.2933 136.673 21.4654 137.757 19.8414H137.82C138.202 21.3699 139.19 22.1341 141.006 22.1341C142.726 22.1341 144.096 21.2425 145.083 19.3956L144.573 18.8861C143.841 19.6185 143.267 19.8096 142.821 19.8096ZM137.757 18.6632C137.024 19.3319 136.196 19.8096 135.272 19.8096C134.284 19.8096 133.615 19.1727 133.615 18.1537C133.615 17.1348 134.125 15.4471 137.757 14.4918V18.6632Z" fill="#252428"/>
<path d="M161.137 18.4403V10.7661C161.137 8.25053 160.054 6.94496 157.411 6.94496C155.021 6.94496 153.078 8.40975 151.677 9.97006H151.581C151.581 8.69633 151.709 7.32708 151.804 6.94496L151.613 6.75391L145.593 9.58794L145.911 10.3203C146.325 10.1611 146.644 10.0974 146.994 10.0974C147.504 10.0974 147.791 10.2885 147.791 11.1483V18.4403C147.791 20.7649 147.408 21.0196 146.166 21.0833V21.8157H153.907V21.0833C152.091 21.0196 151.677 20.7649 151.677 18.4403V11.0209C153.11 10.0019 154.321 9.68347 155.372 9.68347C156.901 9.68347 157.251 10.5751 157.251 11.8806V18.4403C157.251 20.7649 156.837 21.0196 155.627 21.0833V21.8157H163.367V21.0833C161.552 21.0196 161.137 20.7649 161.137 18.4403Z" fill="#252428"/>
<path d="M173.72 19.2682C171.235 19.2682 169.228 17.4213 169.228 13.6002C169.228 10.384 170.726 8.25054 172.987 8.25054C174.644 8.25054 176.491 9.36505 176.969 12.613H177.702V8.02764C176.587 7.26341 174.707 6.94498 173.306 6.94498C169.388 6.94498 165.119 9.65164 165.119 14.9376C165.119 19.6185 168.177 22.2933 172.032 22.2933C175.121 22.2933 177.096 20.5101 178.243 18.0901L177.733 17.5806C176.491 18.7588 174.93 19.2682 173.72 19.2682Z" fill="#252428"/>
<path d="M189.105 19.2682C186.398 19.2682 184.327 17.4213 184.2 13.5683L193.692 12.3901C193.692 8.98293 191.526 6.94498 188.054 6.94498C183.945 6.94498 180.314 9.93823 180.314 14.9057C180.314 19.8733 183.658 22.2933 187.576 22.2933C190.698 22.2933 192.673 20.6375 193.884 18.0901L193.374 17.5806C192.132 18.7269 190.507 19.2682 189.105 19.2682ZM187.226 8.25054C188.882 8.25054 189.488 9.81085 189.679 11.7214L184.232 12.3901C184.423 9.90638 185.442 8.25054 187.226 8.25054Z" fill="#252428"/>
<path d="M201.72 3.49637C201.533 3.05853 201.274 2.67482 200.942 2.34206C200.611 2.01089 200.226 1.74978 199.788 1.56191C199.35 1.37403 198.88 1.2785 198.378 1.2785C197.876 1.2785 197.413 1.37244 196.975 1.56191C196.537 1.75137 196.153 2.01089 195.82 2.34206C195.487 2.67323 195.228 3.05853 195.04 3.49637C194.85 3.93422 194.756 4.40072 194.756 4.89906C194.756 5.39741 194.85 5.86391 195.04 6.30175C195.228 6.73959 195.489 7.1233 195.82 7.45606C196.152 7.78723 196.537 8.04834 196.975 8.23622C197.413 8.42568 197.88 8.51962 198.378 8.51962C198.877 8.51962 199.35 8.42568 199.788 8.23622C200.226 8.04834 200.61 7.78723 200.942 7.45606C201.275 7.12489 201.533 6.73959 201.72 6.30175C201.906 5.86391 202 5.39741 202 4.89906C202 4.40072 201.906 3.93422 201.72 3.49637ZM200.933 6.38295C200.67 6.82875 200.315 7.1838 199.869 7.44651C199.423 7.70921 198.926 7.84136 198.378 7.84136C197.83 7.84136 197.346 7.70921 196.9 7.44651C196.454 7.1838 196.099 6.82875 195.833 6.38295C195.567 5.93715 195.435 5.44358 195.435 4.89906C195.435 4.35454 195.567 3.86098 195.833 3.41517C196.099 2.96937 196.454 2.61432 196.9 2.35162C197.346 2.08891 197.838 1.95676 198.378 1.95676C198.918 1.95676 199.423 2.08891 199.869 2.35162C200.315 2.61432 200.67 2.96937 200.933 3.41517C201.196 3.86098 201.326 4.35614 201.322 4.89906C201.326 5.44199 201.196 5.93715 200.933 6.38295Z" fill="#252428"/>
<path d="M199.232 5.19839C199.394 5.11082 199.53 4.98504 199.64 4.81946C199.749 4.65387 199.805 4.45804 199.805 4.23514C199.805 4.01224 199.753 3.81481 199.646 3.66037C199.539 3.50593 199.407 3.38811 199.248 3.3085C199.089 3.23049 198.924 3.19228 198.759 3.19705H197.153V6.53102H197.738V5.33054H198.659L199.288 6.53102H199.941L199.227 5.20158C199.227 5.20158 199.229 5.20158 199.23 5.19998L199.232 5.19839ZM198.983 4.7096C198.862 4.81946 198.725 4.872 198.572 4.86882H197.74V3.64923H198.579C198.724 3.64923 198.858 3.69381 198.98 3.78297C199.103 3.87213 199.163 4.02179 199.163 4.23355C199.163 4.4453 199.103 4.59974 198.983 4.7096Z" fill="#252428"/>
</g>
<defs>
<clipPath id="clip0_3314_177">
<rect width="202" height="25" fill="white"/>
</clipPath>
</defs>
</svg>
