<svg width="144" height="36" viewBox="0 0 144 36" fill="none" xmlns="http://www.w3.org/2000/svg">
<g clip-path="url(#clip0_2779_222)">
<path d="M130.67 7.55502C131.203 7.17752 131.82 6.98752 132.515 6.98752C133.035 6.98752 133.498 7.09002 133.898 7.29502C134.298 7.50002 134.628 7.77252 134.885 8.11002C135.143 8.44752 135.315 8.82252 135.408 9.23252H136.678C136.58 8.55502 136.338 7.96252 135.95 7.45002C135.563 6.94002 135.073 6.54252 134.48 6.25752C133.888 5.97502 133.228 5.83252 132.498 5.83252C131.548 5.83252 130.71 6.07752 129.988 6.56502C129.265 7.05252 128.703 7.72252 128.298 8.57252C127.893 9.42252 127.693 10.3975 127.693 11.4975C127.693 12.5975 127.89 13.5425 128.288 14.3925C128.685 15.2425 129.245 15.91 129.968 16.4C130.69 16.89 131.54 17.1325 132.518 17.1325C133.273 17.1325 133.945 16.985 134.535 16.6875C135.125 16.3925 135.605 15.985 135.98 15.4725C136.355 14.9575 136.588 14.3725 136.678 13.715H135.408C135.258 14.405 134.92 14.955 134.393 15.365C133.865 15.775 133.24 15.98 132.518 15.98C131.795 15.98 131.185 15.7875 130.648 15.405C130.11 15.02 129.695 14.4875 129.403 13.8025C129.11 13.1175 128.963 12.3375 128.963 11.4575C128.963 10.5775 129.115 9.79502 129.418 9.12252C129.72 8.45252 130.138 7.92752 130.673 7.55002L130.67 7.55502Z" fill="#DEE0E4"/>
<path d="M141.295 3.33505C141.6 3.02255 142.028 2.86505 142.575 2.86505C142.79 2.86505 142.965 2.88255 143.098 2.91755C143.23 2.95255 143.348 2.99005 143.445 3.03005L143.815 1.92755C143.69 1.87005 143.518 1.81255 143.298 1.75755C143.075 1.70255 142.795 1.67505 142.458 1.67505C141.97 1.67505 141.505 1.78005 141.065 1.98755C140.625 2.19505 140.27 2.50005 139.995 2.90005C139.72 3.30005 139.585 3.79755 139.585 4.39005V5.98255H137.905V7.08505H139.585V16.9H140.835V7.08505H143.268V5.98255H140.835V4.66505C140.835 4.09255 140.988 3.65005 141.295 3.33755V3.33505Z" fill="#DEE0E4"/>
<path d="M118.791 1.80538L113.788 34.3052L115.024 34.4953L120.026 1.99553L118.791 1.80538Z" fill="#DEE0E4"/>
<path d="M28.15 29.4L19.15 5.1C18.45 3.35 17.85 1.75 17.4 0H14.7C14.25 1.75 13.65 3.35 12.95 5.1L3.65 29.4C2.75 31.75 1.7 33.1 0 33.25V34.4H9.6V33.25C6.15 33.1 5.35 31.75 6.2 29.4L8.25 24C8.8 22.6 9.4 22.45 10.8 22.45H16.8C17.5 22.45 18.25 22.4 18.6 22.05L21.25 29.4C22.2 32 21.9 33.1 18.95 33.25V34.4H32.1V33.25C30.1 33.1 29.45 32.85 28.15 29.4ZM16.7 20.45H10.9C10.3 20.45 9.8 20.45 9.5 20.65L13.75 9.35H13.85L17.6 19.35C17.95 20.25 17.6 20.45 16.7 20.45Z" fill="#DEE0E4"/>
<path d="M51.15 0.400024C41.8 0.400024 34.25 7.35003 34.25 17.85C34.25 28.35 41.85 35.15 51.1 35.15C60.35 35.15 68 28.2 68 17.7C68 7.20003 60.4 0.400024 51.15 0.400024ZM52 33.05C46.2 33.05 41.2 27.1 41.2 16.45C41.2 7.80003 44.75 2.50002 50.25 2.50002C56.05 2.50002 61.05 8.45003 61.05 19.1C61.05 27.75 57.5 33.05 52 33.05Z" fill="#DEE0E4"/>
<path d="M91.85 33.05C85.2 33.05 80.85 26.25 80.85 16.85C80.85 7.45003 85.65 2.50002 92.35 2.50002C96.45 2.50002 100.3 4.20002 101.7 10.15H102.85V2.25002C100.65 1.25002 96.65 0.400024 92.8 0.400024C82.55 0.400024 73.9 7.20002 73.9 18.15C73.9 28.3 81.35 35.15 91.6 35.15C97.35 35.15 101.3 33 103.65 30.3L104 23.4H102.85C101.65 28.35 97.5 33.05 91.85 33.05Z" fill="#DEE0E4"/>
</g>
<defs>
<clipPath id="clip0_2779_222">
<rect width="143.815" height="35.15" fill="white"/>
</clipPath>
</defs>
</svg>
