<svg width="142" height="35" viewBox="0 0 142 35" fill="none" xmlns="http://www.w3.org/2000/svg">
<g clip-path="url(#clip0_3319_313)">
<path d="M16.9 0C7.55 0 0 6.95 0 17.45C0 27.95 7.6 34.75 16.85 34.75C26.1 34.75 33.75 27.8 33.75 17.3C33.75 6.8 26.15 0 16.9 0ZM17.75 32.65C11.95 32.65 6.95 26.7 6.95 16.05C6.95 7.4 10.5 2.1 16 2.1C21.8 2.1 26.8 8.05 26.8 18.7C26.8 27.35 23.25 32.65 17.75 32.65Z" fill="#DEE0E4"/>
<path d="M38.8 1.9C42 2 42.8 2.4 42.8 5.75V29C42.8 32.35 42 32.75 39.75 32.85V34H53.8V32.85C50.1 32.75 49.3 32.35 49.3 29V20C49.3 18.25 49.95 17.8 51.75 17.8H57.4C59.55 17.8 60.65 18.5 60.75 21H61.9V12.5H60.75C60.65 14.55 59.4 15.75 57.4 15.75H51.65C50.6 15.75 49.85 15.85 49.3 16.25V5.75C49.3 3.2 50.1 2.75 51.5 2.75H55.7C59.85 2.75 61.25 4.75 61.4 7.75H62.55V0.75H38.8V1.9Z" fill="#DEE0E4"/>
<path d="M85.15 0C75.8 0 68.25 6.95 68.25 17.45C68.25 27.95 75.85 34.75 85.1 34.75C94.35 34.75 102 27.8 102 17.3C102 6.8 94.4 0 85.15 0ZM86 32.65C80.2 32.65 75.2 26.7 75.2 16.05C75.2 7.4 78.75 2.1 84.25 2.1C90.05 2.1 95.05 8.05 95.05 18.7C95.05 27.35 91.5 32.65 86 32.65Z" fill="#DEE0E4"/>
<path d="M128.32 7.155C128.853 6.7775 129.47 6.5875 130.165 6.5875C130.685 6.5875 131.148 6.69 131.548 6.895C131.948 7.1 132.278 7.3725 132.535 7.71C132.793 8.0475 132.965 8.4225 133.058 8.8325H134.328C134.23 8.155 133.988 7.5625 133.6 7.05C133.213 6.54 132.723 6.1425 132.13 5.8575C131.538 5.575 130.878 5.4325 130.148 5.4325C129.198 5.4325 128.36 5.6775 127.638 6.165C126.915 6.6525 126.353 7.32249 125.948 8.17249C125.543 9.02249 125.343 9.9975 125.343 11.0975C125.343 12.1975 125.54 13.1425 125.938 13.9925C126.335 14.8425 126.895 15.51 127.618 16C128.34 16.49 129.19 16.7325 130.168 16.7325C130.923 16.7325 131.595 16.585 132.185 16.2875C132.775 15.9925 133.255 15.585 133.63 15.0725C134.005 14.5575 134.238 13.9725 134.328 13.315H133.058C132.908 14.005 132.57 14.555 132.043 14.965C131.515 15.375 130.89 15.58 130.168 15.58C129.445 15.58 128.835 15.3875 128.298 15.005C127.76 14.62 127.345 14.0875 127.053 13.4025C126.76 12.7175 126.613 11.9375 126.613 11.0575C126.613 10.1775 126.765 9.395 127.068 8.7225C127.37 8.0525 127.788 7.5275 128.323 7.15L128.32 7.155Z" fill="#DEE0E4"/>
<path d="M138.945 2.93502C139.25 2.62252 139.678 2.46502 140.225 2.46502C140.44 2.46502 140.615 2.48252 140.747 2.51752C140.88 2.55252 140.998 2.59002 141.095 2.63002L141.465 1.52752C141.34 1.47002 141.167 1.41252 140.947 1.35752C140.725 1.30252 140.445 1.27502 140.107 1.27502C139.62 1.27502 139.155 1.38002 138.715 1.58752C138.275 1.79502 137.92 2.10002 137.645 2.50002C137.37 2.90002 137.235 3.39752 137.235 3.99002V5.58252H135.555V6.68502H137.235V16.5H138.485V6.68502H140.917V5.58252H138.485V4.26502C138.485 3.69252 138.638 3.25002 138.945 2.93752V2.93502Z" fill="#DEE0E4"/>
<path d="M116.44 1.40469L111.438 33.9045L112.673 34.0946L117.676 1.59484L116.44 1.40469Z" fill="#DEE0E4"/>
</g>
<defs>
<clipPath id="clip0_3319_313">
<rect width="141.465" height="34.75" fill="white"/>
</clipPath>
</defs>
</svg>
