<svg width="125" height="45" viewBox="0 0 125 45" fill="none" xmlns="http://www.w3.org/2000/svg">
<g clip-path="url(#clip0_2779_238)">
<path d="M111.27 16.9625C111.802 16.585 112.42 16.395 113.115 16.395C113.635 16.395 114.097 16.4975 114.497 16.7025C114.897 16.9075 115.227 17.18 115.485 17.5175C115.742 17.855 115.915 18.23 116.007 18.64H117.277C117.18 17.9625 116.937 17.37 116.55 16.8575C116.162 16.3475 115.672 15.95 115.08 15.665C114.487 15.3825 113.827 15.24 113.097 15.24C112.147 15.24 111.31 15.485 110.587 15.9725C109.865 16.46 109.302 17.13 108.897 17.98C108.492 18.83 108.292 19.805 108.292 20.905C108.292 22.005 108.49 22.95 108.887 23.8C109.285 24.65 109.845 25.3175 110.567 25.8075C111.29 26.2975 112.14 26.54 113.117 26.54C113.872 26.54 114.545 26.3925 115.135 26.095C115.725 25.8 116.205 25.3925 116.58 24.88C116.955 24.365 117.187 23.78 117.277 23.1225H116.007C115.857 23.8125 115.52 24.3625 114.992 24.7725C114.465 25.1825 113.84 25.3875 113.117 25.3875C112.395 25.3875 111.785 25.195 111.247 24.8125C110.71 24.4275 110.295 23.895 110.002 23.21C109.71 22.525 109.562 21.745 109.562 20.865C109.562 19.985 109.715 19.2025 110.017 18.53C110.32 17.86 110.737 17.335 111.272 16.9575L111.27 16.9625Z" fill="#252428"/>
<path d="M121.895 12.745C122.2 12.4325 122.628 12.275 123.175 12.275C123.39 12.275 123.565 12.2925 123.698 12.3275C123.83 12.3625 123.948 12.4 124.045 12.44L124.415 11.3375C124.29 11.28 124.118 11.2225 123.898 11.1675C123.675 11.1125 123.395 11.085 123.058 11.085C122.57 11.085 122.105 11.19 121.665 11.3975C121.225 11.605 120.87 11.91 120.595 12.31C120.32 12.71 120.185 13.2075 120.185 13.8V15.3925H118.505V16.495H120.185V26.31H121.435V16.495H123.868V15.3925H121.435V14.075C121.435 13.5025 121.588 13.06 121.895 12.7475V12.745Z" fill="#252428"/>
<path d="M99.3898 11.216L94.3876 43.7158L95.6231 43.906L100.625 11.4062L99.3898 11.216Z" fill="#252428"/>
<path d="M39.3 38.8101L38.25 15.5601C38.1 12.1101 39 11.8101 41.3 11.7101V10.5601H31.75C31.35 12.2101 30.75 13.9101 30 15.5601L21.5 35.2601H21.4L12.2 15.5601C11.3 13.7101 10.7 12.3101 10.15 10.5601H0.3V11.7101C3.45 11.9601 4.3 12.1101 4.15 15.5601L3.05 38.8101C2.95 41.1601 2.2 42.5101 0 42.6601V43.8101H9.8V42.6601C6.35 42.5101 5.45 41.1601 5.55 38.8101L6.5 18.8101H6.6L15.8 38.6101C17.05 41.3101 17.75 42.6601 18.3 44.2101H20.6C21 42.6601 21.5 41.4101 22.7 38.6101L31.8 17.8101H31.9L32.8 38.8101C32.95 42.1601 32.15 42.5101 29.9 42.6601V43.8101H43.1V42.6601C40.25 42.5101 39.45 42.1601 39.3 38.8101Z" fill="#252428"/>
<path d="M55.65 38.5099V26.7599C55.65 23.5599 55.75 21.3099 55.85 20.4599L55.55 20.1599L45.55 24.8099L46.05 25.9599C46.8 25.6599 47.55 25.4099 48.25 25.4099C49.05 25.4099 49.55 25.7099 49.55 27.0599V38.5099C49.55 42.1599 48.9 42.5599 47 42.6599V43.8099H59.15V42.6599C56.3 42.5599 55.65 42.1599 55.65 38.5099Z" fill="#252428"/>
<path d="M52.7 16.8601C54.75 16.8601 56.35 15.2101 56.35 13.2101C56.35 11.2101 54.75 9.61011 52.7 9.61011C50.65 9.61011 49.05 11.2601 49.05 13.2101C49.05 15.1601 50.65 16.8601 52.7 16.8601Z" fill="#252428"/>
<path d="M82.35 1.85993C81.2 0.609925 78.7 -0.0900748 77.15 0.00992523C76.3 2.50993 75.1 4.90993 72.6 7.20993L73.4 7.85993C77.05 6.50993 80.2 4.40993 82.35 1.85993Z" fill="#252428"/>
<path d="M70.15 16.6601C70.15 14.4601 71.7 11.9601 75.95 11.9601C79.7 11.9601 82.3 13.8101 83.4 18.8101H84.55V11.1601C82.8 10.5101 79.85 9.81006 76.3 9.81006C69.05 9.81006 64.3 13.4101 64.3 19.1601C64.3 29.6601 80.15 28.4601 80.15 36.7601C80.15 39.4601 78.5 42.4101 74.1 42.4101C69.1 42.4101 66.15 38.3601 65.95 33.4101H64.8C63.75 34.9101 63.4 36.7101 63.4 38.0101C63.4 42.9601 69.1 44.5601 73.7 44.5601C80.8 44.5601 86 40.9101 86 34.4101C86 23.0601 70.15 23.8601 70.15 16.6601Z" fill="#252428"/>
</g>
<defs>
<clipPath id="clip0_2779_238">
<rect width="124.415" height="44.5575" fill="white"/>
</clipPath>
</defs>
</svg>
