<svg width="125" height="53" viewBox="0 0 125 53" fill="none" xmlns="http://www.w3.org/2000/svg">
<rect x="1" y="1" width="122.024" height="51" rx="25.5" stroke="#252428" stroke-width="2"/>
<path d="M33.6778 25.2391L32.0242 25.6928C31.8661 25.2848 31.5934 24.8985 31.2061 24.5338C30.826 24.162 30.2313 23.9767 29.4221 23.9778C28.6916 23.9789 28.0831 24.1517 27.5967 24.4962C27.1102 24.8335 26.8673 25.2564 26.8681 25.7648C26.8687 26.2232 27.034 26.5881 27.3638 26.8598C27.7008 27.1314 28.2239 27.3527 28.9332 27.5235L30.717 27.9505C31.7844 28.2068 32.5799 28.6031 33.1035 29.1394C33.6343 29.6757 33.9002 30.3593 33.9015 31.19C33.9025 31.8775 33.7064 32.4937 33.3134 33.0385C32.9203 33.5834 32.3731 34.0139 31.6717 34.33C30.9704 34.6461 30.1542 34.8049 29.2232 34.8063C27.9986 34.8081 26.9849 34.541 26.182 34.0051C25.3863 33.4692 24.8802 32.6929 24.6639 31.6763L26.4035 31.244C26.5692 31.8883 26.885 32.3712 27.3509 32.6928C27.8241 33.0144 28.4402 33.1746 29.1993 33.1735C30.0515 33.1722 30.7316 32.9886 31.2395 32.6226C31.7546 32.2495 32.0117 31.8087 32.011 31.3002C32.0098 30.4552 31.4145 29.8903 30.2253 29.6056L28.2266 29.1359C27.1233 28.8725 26.3135 28.4691 25.797 27.9256C25.2806 27.3821 25.0218 26.6985 25.0206 25.875C25.0196 25.1946 25.2085 24.5928 25.5872 24.0694C25.9732 23.5461 26.4989 23.1371 27.1645 22.8425C27.8301 22.5407 28.5818 22.3892 29.4197 22.388C30.6157 22.3862 31.5506 22.6498 32.2246 23.1788C32.9057 23.7006 33.3901 24.3874 33.6778 25.2391ZM35.6681 34.539L35.6504 22.5292L37.4121 22.5266L37.4149 24.4172L37.5868 24.417C37.8365 23.7721 38.2404 23.2702 38.7984 22.9113C39.3565 22.5524 40.0258 22.3724 40.8064 22.3712C41.5942 22.37 42.2497 22.5481 42.773 22.9054C43.3035 23.2627 43.716 23.7634 44.0106 24.4075L44.1395 24.4073C44.4537 23.7838 44.9149 23.289 45.5231 22.9228C46.1384 22.5495 46.8722 22.3623 47.7244 22.361C48.7986 22.3594 49.68 22.6947 50.3685 23.3669C51.0569 24.0319 51.4022 25.0698 51.4043 26.4806L51.4162 34.5157L49.5685 34.5184L49.5566 26.4833C49.5553 25.5953 49.3109 24.9618 48.8234 24.583C48.3358 24.2042 47.7626 24.0152 47.1038 24.0162C46.2659 24.0174 45.6146 24.2762 45.1498 24.7925C44.6923 25.3017 44.464 25.9394 44.4652 26.7057L44.4767 34.526L42.5861 34.5287L42.5739 26.3002C42.5729 25.6199 42.3537 25.0724 41.9162 24.6577C41.4788 24.2358 40.9091 24.0254 40.2073 24.0264C39.7275 24.0271 39.2801 24.1567 38.8651 24.4151C38.4501 24.6735 38.1141 25.0285 37.8569 25.4801C37.6069 25.9316 37.4824 26.451 37.4832 27.0382L37.4943 34.5363L35.6681 34.539ZM57.3033 34.7863C56.5442 34.7875 55.8529 34.6452 55.2294 34.3597C54.6059 34.067 54.1112 33.6452 53.7451 33.0943C53.3791 32.5434 53.1955 31.8777 53.1943 31.0971C53.1933 30.4096 53.3286 29.8544 53.6001 29.4314C53.8716 29.0013 54.2327 28.6642 54.6835 28.4201C55.1415 28.1687 55.6425 27.9818 56.1866 27.8593C56.7379 27.7367 57.2927 27.6392 57.8512 27.5668C58.5816 27.4726 59.1723 27.4001 59.6234 27.3493C60.0816 27.2985 60.4145 27.2121 60.622 27.09C60.8367 26.968 60.9438 26.7601 60.9434 26.4665L60.9433 26.402C60.9421 25.6358 60.73 25.0417 60.3068 24.6198C59.8908 24.1907 59.2567 23.9768 58.4045 23.9781C57.5308 23.9793 56.8436 24.1737 56.3429 24.5612C55.8421 24.9415 55.4918 25.3502 55.292 25.7873L53.5293 25.1669C53.8433 24.436 54.2614 23.866 54.7836 23.457C55.313 23.048 55.8855 22.7607 56.5011 22.5951C57.1239 22.4295 57.7361 22.3462 58.3377 22.3453C58.7244 22.3448 59.1685 22.3907 59.6699 22.483C60.1713 22.5682 60.6586 22.7537 61.1317 23.0395C61.6119 23.318 62.0064 23.7436 62.3152 24.316C62.6311 24.8813 62.7898 25.6402 62.7912 26.5927L62.8029 34.4989L60.9552 34.5016L60.9528 32.8688L60.8669 32.869C60.7455 33.127 60.5382 33.4066 60.2451 33.7078C59.9519 34.0018 59.5619 34.2566 59.0753 34.4722C58.5958 34.6806 58.0051 34.7853 57.3033 34.7863ZM57.5801 33.1316C58.3106 33.1305 58.9263 32.9864 59.4272 32.6992C59.928 32.412 60.307 32.0426 60.5642 31.5911C60.8213 31.1324 60.9495 30.6559 60.9488 30.1618L60.9463 28.4645C60.8677 28.5578 60.6959 28.6439 60.4311 28.7231C60.1733 28.7951 59.8727 28.86 59.529 28.9178C59.1925 28.9756 58.8631 29.0262 58.5409 29.0697C58.2187 29.1059 57.961 29.135 57.7676 29.1567C57.2879 29.2219 56.8405 29.3264 56.4253 29.4702C56.0102 29.6069 55.6739 29.8115 55.4165 30.084C55.1662 30.3565 55.0414 30.7291 55.0421 31.2018C55.0431 31.8391 55.2801 32.3222 55.7533 32.6509C56.2335 32.9725 56.8425 33.1327 57.5801 33.1316ZM65.1661 34.4954L65.1484 22.4857L66.9101 22.4831L66.9128 24.3092L67.0417 24.3091C67.2629 23.7143 67.6596 23.2339 68.232 22.8678C68.8115 22.4946 69.4594 22.3074 70.1755 22.3064C70.3116 22.3062 70.4799 22.3095 70.6804 22.3164C70.8809 22.3161 71.0349 22.3194 71.1423 22.3264L71.1451 24.1956C71.0806 24.1814 70.9374 24.1601 70.7153 24.1318C70.4933 24.1034 70.2569 24.0895 70.0063 24.0898C69.4262 24.0907 68.9072 24.2132 68.4492 24.4574C67.9912 24.7015 67.6301 25.0351 67.3657 25.458C67.1085 25.8809 66.9803 26.3645 66.9811 26.9088L66.9923 34.4927L65.1661 34.4954ZM78.2539 22.4663L78.2562 24.0347L72.0472 24.0439L72.0449 22.4755L78.2539 22.4663ZM73.8454 19.6154L75.6715 19.6127L75.6884 31.0424C75.6893 31.6654 75.8189 32.1236 76.0771 32.4168C76.3354 32.7029 76.7438 32.8455 77.3024 32.8447C77.4241 32.8445 77.5495 32.8372 77.6783 32.8227C77.8144 32.8081 77.9612 32.7864 78.1187 32.7576L78.5078 34.4113C78.336 34.476 78.1249 34.5264 77.8743 34.5626C77.6308 34.6059 77.3838 34.6278 77.1331 34.6282C76.1664 34.6296 75.3782 34.3443 74.7686 33.7723C74.1662 33.2003 73.8643 32.4559 73.863 31.5392L73.8454 19.6154ZM80.3157 34.4731L80.3149 33.9211C81.3948 33.8715 81.7785 33.6789 81.7761 32.0709L81.7597 20.9109C81.7573 19.3029 81.373 19.1115 79.8369 19.0658L79.8361 18.5138L91.2361 18.4969L91.2411 21.8569L90.6891 21.8578C90.6149 20.4179 89.9415 19.4589 87.9495 19.4618L85.9335 19.4648C85.2615 19.4658 84.8779 19.6823 84.8797 20.9063L84.8871 25.9463C85.1508 25.7539 85.5107 25.7054 86.0147 25.7047L88.7747 25.7006C89.7347 25.6992 90.3339 25.1223 90.3804 24.1382L90.9324 24.1374L90.9385 28.2174L90.3865 28.2182C90.3367 27.0183 89.8082 26.6831 88.7762 26.6846L86.0642 26.6886C85.2002 26.6899 84.8885 26.9063 84.8898 27.7463L84.8961 32.0663C84.8985 33.6743 85.2828 33.8658 87.0589 33.9111L87.0597 34.4631L80.3157 34.4731ZM96.3349 21.5134C95.3509 21.5149 94.5818 20.724 94.5804 19.764C94.579 18.828 95.3458 18.0349 96.3298 18.0334C97.3138 18.032 98.083 18.8228 98.0844 19.7588C98.0858 20.7188 97.3189 21.512 96.3349 21.5134ZM97.7663 31.9033C97.7689 33.6553 98.0811 33.8469 99.4492 33.8928L99.45 34.4448L93.618 34.4535L93.6172 33.9015C94.5291 33.8521 94.8409 33.6596 94.8383 31.9076L94.8302 26.4117C94.8292 25.7637 94.589 25.62 94.205 25.6206C93.869 25.6211 93.5092 25.7416 93.1494 25.8861L92.9086 25.3345L97.7053 23.0954L97.8495 23.2392C97.8021 23.6473 97.7557 24.7273 97.758 26.2633L97.7663 31.9033Z" fill="#252428"/>
</svg>
