<?xml version="1.0" encoding="utf-8"?>
<!-- Generator: Adobe Illustrator 24.2.3, SVG Export Plug-In . SVG Version: 6.00 Build 0)  -->
<svg version="1.1" id="Layer_1" xmlns="http://www.w3.org/2000/svg" xmlns:xlink="http://www.w3.org/1999/xlink" x="0px" y="0px"
	 viewBox="0 0 25 25" style="enable-background:new 0 0 25 25;" xml:space="preserve">
<path d="M19.9,0H5.1C2.3,0,0,2.3,0,5.1v14.7C0,22.7,2.3,25,5.1,25h14.7c2.8,0,5.1-2.3,5.1-5.1h0V5.1C25,2.3,22.7,0,19.9,0z
	 M7.7,20.6H4V8.9h3.6V20.6z M5.8,7.3c-1.2,0-2.1-0.9-2.1-2.1c0-1.2,0.9-2.1,2.1-2.1C7,3.1,7.9,4,7.9,5.2C7.9,6.3,7,7.3,5.8,7.3z
	 M21.3,20.6h-3.6v-5.7c0-1.4,0-3.1-1.9-3.1c-1.9,0-2.2,1.5-2.2,3v5.8H9.9V8.9h3.5v1.6h0.1c0.5-0.9,1.7-1.9,3.4-1.9
	c3.7,0,4.4,2.4,4.4,5.6V20.6z"/>
</svg>
